<?xml version="1.0" standalone="no"?>
<!DOCTYPE svg PUBLIC "-//W3C//DTD SVG 20010904//EN"
 "http://www.w3.org/TR/2001/REC-SVG-20010904/DTD/svg10.dtd">
<svg version="1.0" xmlns="http://www.w3.org/2000/svg"
 width="512.000000pt" height="512.000000pt" viewBox="0 0 512.000000 512.000000"
 preserveAspectRatio="xMidYMid meet">

<g transform="translate(0.000000,512.000000) scale(0.100000,-0.100000)"
fill="#000000" stroke="none">
<path d="M1522 4830 c-172 -24 -263 -44 -392 -87 -440 -145 -716 -470 -814
-958 -48 -236 -49 -259 -53 -1115 -5 -860 0 -1029 38 -1252 106 -622 444 -979
1039 -1097 260 -51 288 -52 1265 -48 872 3 915 4 1040 24 588 97 919 346 1085
818 103 293 120 493 120 1445 0 952 -17 1152 -120 1445 -166 472 -497 721
-1085 818 -125 20 -164 21 -1060 23 -860 2 -940 1 -1063 -16z m2023 -315 c569
-67 853 -319 945 -840 34 -190 40 -359 40 -1115 0 -729 -6 -921 -36 -1095 -80
-477 -318 -735 -766 -831 -186 -40 -276 -43 -1085 -44 l-783 0 0 1970 0 1970
778 0 c631 0 802 -3 907 -15z m-2005 -1955 l0 -1950 -22 0 c-13 0 -66 9 -118
20 -520 109 -757 408 -810 1020 -13 150 -13 1670 0 1820 53 610 288 908 805
1019 50 11 102 20 118 20 l27 1 0 -1950z"/>
<path d="M3115 3241 c-16 -10 -161 -151 -322 -312 -315 -317 -315 -317 -298
-406 6 -33 47 -78 303 -336 163 -164 309 -305 324 -313 15 -8 49 -14 75 -14
90 0 153 63 153 153 0 27 -5 58 -11 70 -6 12 -113 124 -237 249 l-227 228 227
227 c125 126 232 241 237 256 27 71 2 154 -58 194 -44 29 -123 31 -166 4z"/>
</g>
</svg>
